<svg width="32" height="32" viewBox="0 0 32 32" fill="none" xmlns="http://www.w3.org/2000/svg">
<path d="M6.4 27.2C9.93462 27.2 12.8 24.3346 12.8 20.8C12.8 17.2654 9.93462 14.4 6.4 14.4C2.86538 14.4 0 17.2654 0 20.8C0 24.3346 2.86538 27.2 6.4 27.2Z" fill="#6E56E0"/>
<path d="M21.6 32C23.8091 32 25.6 30.2091 25.6 28C25.6 25.7909 23.8091 24 21.6 24C19.3908 24 17.6 25.7909 17.6 28C17.6 30.2091 19.3908 32 21.6 32Z" fill="#6E56E0"/>
<path d="M22.4 19.2C27.702 19.2 32 14.9019 32 9.6C32 4.29807 27.702 0 22.4 0C17.0981 0 12.8 4.29807 12.8 9.6C12.8 14.9019 17.0981 19.2 22.4 19.2Z" fill="#6E56E0"/>
</svg>
