<svg width="24" height="24" viewBox="0 0 24 24" fill="none" xmlns="http://www.w3.org/2000/svg">
<g id="vuesax/outline/notification">
<g id="notification">
<path id="Vector" d="M12.02 20.53C9.68999 20.53 7.35999 20.16 5.14999 19.42C4.30999 19.13 3.66999 18.54 3.38999 17.77C3.09999 17 3.19999 16.15 3.65999 15.39L4.80999 13.48C5.04999 13.08 5.26999 12.28 5.26999 11.81V8.91998C5.26999 5.19998 8.29999 2.16998 12.02 2.16998C15.74 2.16998 18.77 5.19998 18.77 8.91998V11.81C18.77 12.27 18.99 13.08 19.23 13.49L20.37 15.39C20.8 16.11 20.88 16.98 20.59 17.77C20.3 18.56 19.67 19.16 18.88 19.42C16.68 20.16 14.35 20.53 12.02 20.53ZM12.02 3.66998C9.12999 3.66998 6.76999 6.01998 6.76999 8.91998V11.81C6.76999 12.54 6.46999 13.62 6.09999 14.25L4.94999 16.16C4.72999 16.53 4.66999 16.92 4.79999 17.25C4.91999 17.59 5.21999 17.85 5.62999 17.99C9.80999 19.39 14.24 19.39 18.42 17.99C18.78 17.87 19.06 17.6 19.19 17.24C19.32 16.88 19.29 16.49 19.09 16.16L17.94 14.25C17.56 13.6 17.27 12.53 17.27 11.8V8.91998C17.27 6.01998 14.92 3.66998 12.02 3.66998Z" fill="#898989"/>
<path id="Vector_2" d="M13.88 3.93999C13.81 3.93999 13.74 3.92999 13.67 3.90999C13.38 3.82999 13.1 3.76999 12.83 3.72999C11.98 3.61999 11.16 3.67999 10.39 3.90999C10.11 3.99999 9.80999 3.90999 9.61999 3.69999C9.42999 3.48999 9.36999 3.18999 9.47999 2.91999C9.88999 1.86999 10.89 1.17999 12.03 1.17999C13.17 1.17999 14.17 1.85999 14.58 2.91999C14.68 3.18999 14.63 3.48999 14.44 3.69999C14.29 3.85999 14.08 3.93999 13.88 3.93999Z" fill="#898989"/>
<path id="Vector_3" d="M12.02 22.81C11.03 22.81 10.07 22.41 9.36999 21.71C8.66999 21.01 8.26999 20.05 8.26999 19.06H9.76999C9.76999 19.65 10.01 20.23 10.43 20.65C10.85 21.07 11.43 21.31 12.02 21.31C13.26 21.31 14.27 20.3 14.27 19.06H15.77C15.77 21.13 14.09 22.81 12.02 22.81Z" fill="#898989"/>
</g>
</g>
</svg>
