<svg width="24" height="24" viewBox="0 0 24 24" fill="none" xmlns="http://www.w3.org/2000/svg">
<path fill-rule="evenodd" clip-rule="evenodd" d="M24 12C24 18.6274 18.6274 24 12 24C5.37258 24 0 18.6274 0 12C0 5.37258 5.37258 0 12 0C18.6274 0 24 5.37258 24 12ZM20.3621 16.7188C18.7141 19.633 15.5868 21.6 12 21.6C6.69807 21.6 2.4 17.3019 2.4 12C2.4 6.69807 6.69807 2.4 12 2.4C17.3019 2.4 21.6 6.69807 21.6 12C21.6 13.2858 21.3472 14.5126 20.8886 15.6333H15.1235V6.13333H16.0224V5.7C16.0224 5.47778 15.9669 5.27222 15.856 5.08333C15.745 4.89444 15.5008 4.8 15.1235 4.8C14.5131 4.8 13.8749 4.87222 13.209 5.01667C12.5542 5.16111 11.9105 5.4 11.2779 5.73333C10.6453 6.06667 10.046 6.50556 9.48 7.05C8.91399 7.59444 8.41457 8.27778 7.98173 9.1C7.56 9.91111 7.2215 10.8722 6.96624 11.9833C6.72208 13.0833 6.6 14.3556 6.6 15.8V16.8H7.18266C7.42682 16.8 7.63769 16.7389 7.81526 16.6167C8.00393 16.4944 8.09827 16.2222 8.09827 15.8C8.09827 15.0333 8.13711 14.3222 8.2148 13.6667C8.29249 13.0111 8.40902 12.3944 8.56439 11.8167H13.6252V15.8C13.6252 16.0111 13.6529 16.1833 13.7084 16.3167C13.7639 16.4389 13.8361 16.5389 13.9249 16.6167C14.0247 16.6833 14.1357 16.7333 14.2578 16.7667C14.3799 16.7889 14.502 16.8 14.624 16.8H19.8347C19.979 16.8 20.1177 16.7833 20.2509 16.75C20.2891 16.7412 20.3262 16.7308 20.3621 16.7188ZM10.945 7.68333C11.7551 6.98333 12.6486 6.52222 13.6252 6.3V10.5667H8.98058C9.48 9.33333 10.1348 8.37222 10.945 7.68333Z" fill="white"/>
</svg>
